<svg xmlns="http://www.w3.org/2000/svg" data-name="Layer 1" viewBox="0 0 512 512"><path fill="#00acea" d="M339.23,111.02a50.973,50.973,0,0,1,27.15,8.44c16.62,10.93,20.36,31.65,15.86,46.53a41.961,41.961,0,0,1-7.32,13.75s38.73,6.61,29.28,45.83l-.29.62a61.048,61.048,0,0,1,5.58,2.85c26.79,15.48,36.97,47.65,19.16,71.62,2.66,1.12,21,11.67,25.33,27.45,4.46,16.24-7.92,31.55-27.52,40.53,9.29,14.47,7.03,31.44-2.44,42.49-13.63,15.9-41.94,16.84-60.89,7.68l-.12.25a40.514,40.514,0,0,1-21.56,8.28c-12.75,1-22.84-4.73-26.55-7.11-2.4,5.31-10.49,20.92-24.65,22.88C275.18,445.19,260,435.8,255,429.33V83.77a53.5,53.5,0,0,1,46.84-14.28c20.9,4.01,37.15,21.17,37.39,41.51Z"/><path fill="#00efd1" d="M172.77,111.02V111c.24-20.34,15.49-37.5,36.39-41.51C225.87,66.28,244,71.88,255,83.77V429.33c-6,6.47-19.18,15.86-34.25,13.78-14.16-1.96-21.75-17.57-24.15-22.88-3.71,2.38-13.55,8.11-26.3,7.11a40.1,40.1,0,0,1-21.43-8.28l-.1-.2c-18.95,9.11-47.18,8.15-60.79-7.73-9.47-11.05-11.73-28.02-2.44-42.49-19.6-8.98-31.98-24.29-27.52-40.53,4.33-15.78,22.67-26.33,25.33-27.45-17.81-23.97-7.63-56.14,19.16-71.62a61.048,61.048,0,0,1,5.58-2.85l-.29-.62c-9.45-39.22,29.28-45.83,29.28-45.83a41.961,41.961,0,0,1-7.32-13.75c-4.5-14.88-.76-35.6,15.86-46.53A50.973,50.973,0,0,1,172.77,111.02Z"/><path fill="#00ceb4" d="M229.474 176.031a8 8 0 0 0-9.912-5.454 17.936 17.936 0 0 1-8.137.588c-8.005-1.429-14.487-9.48-16.13-20.036a8 8 0 0 0-15.811 2.461 44.71 44.71 0 0 0 7.682 19.161 17.331 17.331 0 0 0-6.315 8.8 16.065 16.065 0 0 0 .318 9.793 8 8 0 1 0 15.123-5.222c-.017-.05-.029-.092-.038-.126a7.288 7.288 0 0 1 3.776-1.98 30.943 30.943 0 0 0 8.592 2.9 31.469 31.469 0 0 0 5.507.481 35.457 35.457 0 0 0 9.89-1.455A8 8 0 0 0 229.474 176.031zM196.33 320.154a8 8 0 0 0-11.206-1.554c-3.306 2.5-10.141 6.63-18.71 6.143a26.092 26.092 0 0 1-9.859-2.606 7.971 7.971 0 0 0-2.128-1.16 29.205 29.205 0 0 1-13.578-19.142 8 8 0 0 0-15.659 3.29 45.526 45.526 0 0 0 9.729 19.983A21.822 21.822 0 0 0 126.24 336.2c-2.635 7.905-.051 16.568 6.744 22.609a8 8 0 0 0 10.631-11.958c-1.931-1.717-2.773-3.859-2.2-5.591.747-2.245 3.89-4.45 8.112-4.749a42.207 42.207 0 0 0 15.982 4.206c.77.044 1.53.064 2.281.064 12.571 0 22.212-5.813 26.981-9.421A8 8 0 0 0 196.33 320.154zM235.476 291.208a8 8 0 1 0-5.711 14.945c.587.224 14.41 5.615 16.806 15.85a8 8 0 1 0 15.578-3.646C258 300.633 239.2 292.631 235.476 291.208zM198.245 353.376a8 8 0 0 0-5.211 15.128c9.55 3.289 13.587 7.278 13.352 9.762a10.424 10.424 0 0 1-1.694 5.231 8 8 0 1 0 12 10.586c4.154-4.706 5.307-10.973 5.626-14.3C222.934 373.23 220.63 361.086 198.245 353.376z"/><path fill="#12cdff" d="M303.386 186.916a30.937 30.937 0 0 0 8.585-2.9 7.375 7.375 0 0 1 3.781 1.955c-.009.038-.023.088-.044.15a8 8 0 1 0 15.123 5.222 16.079 16.079 0 0 0 .314-9.808 17.312 17.312 0 0 0-6.31-8.783 44.7 44.7 0 0 0 7.681-19.16 8 8 0 0 0-15.811-2.461c-1.643 10.556-8.125 18.607-16.122 20.034a17.949 17.949 0 0 1-8.145-.586 8 8 0 1 0-4.457 15.366 35.433 35.433 0 0 0 9.889 1.454A31.6 31.6 0 0 0 303.386 186.916zM380.625 295.651a8 8 0 0 0-9.474 6.184 29.212 29.212 0 0 1-13.578 19.142 7.994 7.994 0 0 0-2.131 1.162 26.1 26.1 0 0 1-9.849 2.6c-8.593.477-15.412-3.643-18.717-6.143a8 8 0 1 0-9.652 12.76c4.769 3.608 14.409 9.421 26.986 9.421q1.127 0 2.284-.064a42.211 42.211 0 0 0 15.977-4.207c4.222.3 7.361 2.5 8.109 4.75.578 1.732-.264 3.874-2.195 5.591a8 8 0 0 0 10.631 11.958c6.795-6.041 9.379-14.7 6.743-22.609a21.814 21.814 0 0 0-8.671-11.1 45.524 45.524 0 0 0 9.722-19.974A8 8 0 0 0 380.625 295.651zM275.482 229.154c-21.753 8.286-26.717 22.874-27.725 27.167a28.968 28.968 0 0 0-.559 9.729 8 8 0 0 0 7.943 7.131 8.192 8.192 0 0 0 .88-.048 8 8 0 0 0 7.082-8.822 12.849 12.849 0 0 1 .235-4.353c2.223-9.466 15.251-14.866 17.84-15.852a8 8 0 1 0-5.7-14.952zM313.755 353.376c-15.5 5.338-25.17 16.753-24.068 28.417a21.529 21.529 0 0 0 5.625 12.29 8 8 0 1 0 12-10.586 6.332 6.332 0 0 1-1.693-3.22c-.316-3.342 4.7-8.793 13.351-11.773a8 8 0 0 0-5.211-15.128z"/></svg>